<svg xmlns="http://www.w3.org/2000/svg" viewBox="0 0 700 500"><defs><linearGradient id="g" x2="1" y2="1"><stop stop-color="#eef5d2"/><stop offset="1" stop-color="#d5e7aa"/></linearGradient></defs><rect width="700" height="500" rx="36" fill="url(#g)"/><circle cx="225" cy="350" r="92" fill="none" stroke="#698b4b" stroke-width="12"/><circle cx="500" cy="350" r="92" fill="none" stroke="#698b4b" stroke-width="12"/><path d="M225 350 328 237l76 113H225l70-113h109l96 113" fill="none" stroke="#41632f" stroke-width="12" stroke-linecap="round" stroke-linejoin="round"/><path d="M389 252c-14-69-9-125 25-160 45-45 101-16 106 28 5 50-43 73-87 59-18 37-14 75-6 107" fill="#f8fbef" stroke="#7d9368" stroke-width="7"/><path d="M448 117 601 99 496 149c-34 16-62-5-48-32Z" fill="#e7a64f"/><circle cx="466" cy="103" r="7" fill="#31501f"/><path d="m398 250-47 56m56-55 42 61" stroke="#d49b45" stroke-width="11" stroke-linecap="round"/><path d="M341 307h40m56 7h40" stroke="#31501f" stroke-width="8" stroke-linecap="round"/><text x="44" y="72" font-family="system-ui" font-weight="800" font-size="23" fill="#496b32">TIHU / MODEL PLAYGROUND</text><text x="45" y="104" font-family="system-ui" font-size="15" fill="#779461">same prompt · same sandbox · different models</text></svg>
